# xmcd CD database file
#
# Track frame offsets:
#	150
#	26864
#	52863
#	69493
#	94806
#	123415
#	137884
#	177207
#	201991
#	254365
#	273950
#
# Disc length: 3791 seconds
#
# Revision: 0
# Processed by: cddbd v1.5PL3 Copyright (c) Steve Scherf et al.
# Submitted via: CDex 1.51
#
DISCID=a00ecd0b
DTITLE=Bernd Scholl - Secret Garden
DYEAR=1995
DGENRE=New Age
TTITLE0=The Firerose
TTITLE1=Valley in the Sun
TTITLE2=Dance of Joy
TTITLE3=The Call of the Spring
TTITLE4=Another Dream
TTITLE5=Blue Moments
TTITLE6=Secret Garden
TTITLE7=Natural Power
TTITLE8=Shining On
TTITLE9=Doughter of Love
TTITLE10=Twilight
EXTD=YEAR: 1995
EXTT0=
EXTT1=
EXTT2=
EXTT3=
EXTT4=
EXTT5=
EXTT6=
EXTT7=
EXTT8=
EXTT9=
EXTT10=
PLAYORDER=
